<svg xmlns="http://www.w3.org/2000/svg" xmlns:xlink="http://www.w3.org/1999/xlink" contentStyleType="text/css" data-diagram-type="ACTIVITY" height="784px" preserveAspectRatio="none" style="width:242px;height:784px;background:#FFFFFF;" version="1.1" viewBox="0 0 242 784" width="242px" zoomAndPan="magnify"><defs/><g><ellipse cx="121.2275" cy="20" fill="#222222" rx="10" ry="10" style="stroke:#222222;stroke-width:1;"/><rect fill="#F1F1F1" height="33.9688" rx="12.5" ry="12.5" style="stroke:#181818;stroke-width:0.5;" width="88.6133" x="76.9209" y="50"/><text fill="#000000" font-family="sans-serif" font-size="12" lengthAdjust="spacing" textLength="68.6133" x="86.9209" y="71.1387">Build Stage</text><rect fill="#F1F1F1" height="33.9688" rx="12.5" ry="12.5" style="stroke:#181818;stroke-width:0.5;" width="191.7559" x="25.3496" y="103.9688"/><text fill="#000000" font-family="sans-serif" font-size="12" lengthAdjust="spacing" textLength="171.7559" x="35.3496" y="125.1074">Build 'cj-build' Docker image</text><rect fill="#F1F1F1" height="33.9688" rx="12.5" ry="12.5" style="stroke:#181818;stroke-width:0.5;" width="125.9785" x="58.2383" y="157.9375"/><text fill="#000000" font-family="sans-serif" font-size="12" lengthAdjust="spacing" textLength="105.9785" x="68.2383" y="179.0762">Extract cjson.rpm</text><rect fill="#F1F1F1" height="33.9688" rx="12.5" ry="12.5" style="stroke:#181818;stroke-width:0.5;" width="84.1602" x="79.1475" y="211.9063"/><text fill="#000000" font-family="sans-serif" font-size="12" lengthAdjust="spacing" textLength="64.1602" x="89.1475" y="233.0449">Test Stage</text><rect fill="#F1F1F1" height="33.9688" rx="12.5" ry="12.5" style="stroke:#181818;stroke-width:0.5;" width="185.293" x="28.5811" y="265.875"/><text fill="#000000" font-family="sans-serif" font-size="12" lengthAdjust="spacing" textLength="165.293" x="38.5811" y="287.0137">Build 'cj-test' Docker image</text><rect fill="#F1F1F1" height="33.9688" rx="12.5" ry="12.5" style="stroke:#181818;stroke-width:0.5;" width="163.3145" x="39.5703" y="319.8438"/><text fill="#000000" font-family="sans-serif" font-size="12" lengthAdjust="spacing" textLength="143.3145" x="49.5703" y="340.9824">Run tests and save logs</text><rect fill="#F1F1F1" height="33.9688" rx="12.5" ry="12.5" style="stroke:#181818;stroke-width:0.5;" width="100.5078" x="70.9736" y="373.8125"/><text fill="#000000" font-family="sans-serif" font-size="12" lengthAdjust="spacing" textLength="80.5078" x="80.9736" y="394.9512">Deploy Stage</text><rect fill="#F1F1F1" height="33.9688" rx="12.5" ry="12.5" style="stroke:#181818;stroke-width:0.5;" width="202.6426" x="19.9063" y="427.7813"/><text fill="#000000" font-family="sans-serif" font-size="12" lengthAdjust="spacing" textLength="182.6426" x="29.9063" y="448.9199">Build 'cj-deploy' Docker image</text><rect fill="#F1F1F1" height="33.9688" rx="12.5" ry="12.5" style="stroke:#181818;stroke-width:0.5;" width="220.4551" x="11" y="481.75"/><text fill="#000000" font-family="sans-serif" font-size="12" lengthAdjust="spacing" textLength="200.4551" x="21" y="502.8887">Install and verify cJSON from rpm</text><rect fill="#F1F1F1" height="33.9688" rx="12.5" ry="12.5" style="stroke:#181818;stroke-width:0.5;" width="86.3047" x="78.0752" y="535.7188"/><text fill="#000000" font-family="sans-serif" font-size="12" lengthAdjust="spacing" textLength="66.3047" x="88.0752" y="556.8574">Print Stage</text><rect fill="#F1F1F1" height="33.9688" rx="12.5" ry="12.5" style="stroke:#181818;stroke-width:0.5;" width="172.7305" x="34.8623" y="589.6875"/><text fill="#000000" font-family="sans-serif" font-size="12" lengthAdjust="spacing" textLength="152.7305" x="44.8623" y="610.8262">Display success message</text><rect fill="#F1F1F1" height="33.9688" rx="12.5" ry="12.5" style="stroke:#181818;stroke-width:0.5;" width="119.293" x="61.5811" y="643.6563"/><text fill="#000000" font-family="sans-serif" font-size="12" lengthAdjust="spacing" textLength="99.293" x="71.5811" y="664.7949">Archive Artifacts</text><rect fill="#F1F1F1" height="33.9688" rx="12.5" ry="12.5" style="stroke:#181818;stroke-width:0.5;" width="198.8047" x="21.8252" y="697.625"/><text fill="#000000" font-family="sans-serif" font-size="12" lengthAdjust="spacing" textLength="178.8047" x="31.8252" y="718.7637">Archive .rpm and log artifacts</text><ellipse cx="121.2275" cy="762.5938" fill="none" rx="11" ry="11" style="stroke:#222222;stroke-width:1;"/><ellipse cx="121.2275" cy="762.5938" fill="#222222" rx="6" ry="6" style="stroke:#222222;stroke-width:1;"/><line style="stroke:#181818;stroke-width:1;" x1="121.2275" x2="121.2275" y1="30" y2="50"/><polygon fill="#181818" points="117.2275,40,121.2275,50,125.2275,40,121.2275,44" style="stroke:#181818;stroke-width:1;"/><line style="stroke:#181818;stroke-width:1;" x1="121.2275" x2="121.2275" y1="83.9688" y2="103.9688"/><polygon fill="#181818" points="117.2275,93.9688,121.2275,103.9688,125.2275,93.9688,121.2275,97.9688" style="stroke:#181818;stroke-width:1;"/><line style="stroke:#181818;stroke-width:1;" x1="121.2275" x2="121.2275" y1="137.9375" y2="157.9375"/><polygon fill="#181818" points="117.2275,147.9375,121.2275,157.9375,125.2275,147.9375,121.2275,151.9375" style="stroke:#181818;stroke-width:1;"/><line style="stroke:#181818;stroke-width:1;" x1="121.2275" x2="121.2275" y1="191.9063" y2="211.9063"/><polygon fill="#181818" points="117.2275,201.9063,121.2275,211.9063,125.2275,201.9063,121.2275,205.9063" style="stroke:#181818;stroke-width:1;"/><line style="stroke:#181818;stroke-width:1;" x1="121.2275" x2="121.2275" y1="245.875" y2="265.875"/><polygon fill="#181818" points="117.2275,255.875,121.2275,265.875,125.2275,255.875,121.2275,259.875" style="stroke:#181818;stroke-width:1;"/><line style="stroke:#181818;stroke-width:1;" x1="121.2275" x2="121.2275" y1="299.8438" y2="319.8438"/><polygon fill="#181818" points="117.2275,309.8438,121.2275,319.8438,125.2275,309.8438,121.2275,313.8438" style="stroke:#181818;stroke-width:1;"/><line style="stroke:#181818;stroke-width:1;" x1="121.2275" x2="121.2275" y1="353.8125" y2="373.8125"/><polygon fill="#181818" points="117.2275,363.8125,121.2275,373.8125,125.2275,363.8125,121.2275,367.8125" style="stroke:#181818;stroke-width:1;"/><line style="stroke:#181818;stroke-width:1;" x1="121.2275" x2="121.2275" y1="407.7813" y2="427.7813"/><polygon fill="#181818" points="117.2275,417.7813,121.2275,427.7813,125.2275,417.7813,121.2275,421.7813" style="stroke:#181818;stroke-width:1;"/><line style="stroke:#181818;stroke-width:1;" x1="121.2275" x2="121.2275" y1="461.75" y2="481.75"/><polygon fill="#181818" points="117.2275,471.75,121.2275,481.75,125.2275,471.75,121.2275,475.75" style="stroke:#181818;stroke-width:1;"/><line style="stroke:#181818;stroke-width:1;" x1="121.2275" x2="121.2275" y1="515.7188" y2="535.7188"/><polygon fill="#181818" points="117.2275,525.7188,121.2275,535.7188,125.2275,525.7188,121.2275,529.7188" style="stroke:#181818;stroke-width:1;"/><line style="stroke:#181818;stroke-width:1;" x1="121.2275" x2="121.2275" y1="569.6875" y2="589.6875"/><polygon fill="#181818" points="117.2275,579.6875,121.2275,589.6875,125.2275,579.6875,121.2275,583.6875" style="stroke:#181818;stroke-width:1;"/><line style="stroke:#181818;stroke-width:1;" x1="121.2275" x2="121.2275" y1="623.6563" y2="643.6563"/><polygon fill="#181818" points="117.2275,633.6563,121.2275,643.6563,125.2275,633.6563,121.2275,637.6563" style="stroke:#181818;stroke-width:1;"/><line style="stroke:#181818;stroke-width:1;" x1="121.2275" x2="121.2275" y1="677.625" y2="697.625"/><polygon fill="#181818" points="117.2275,687.625,121.2275,697.625,125.2275,687.625,121.2275,691.625" style="stroke:#181818;stroke-width:1;"/><line style="stroke:#181818;stroke-width:1;" x1="121.2275" x2="121.2275" y1="731.5938" y2="751.5938"/><polygon fill="#181818" points="117.2275,741.5938,121.2275,751.5938,125.2275,741.5938,121.2275,745.5938" style="stroke:#181818;stroke-width:1;"/><!--SRC=[ROzB4e8m38Rtd28xLde0ME7WGXVgY1UefM2n3oO9ZDpUWWyMiEca-JDVlX0Bv2XATfqs9HGiQfN-Vh5iDlUnYY7tygaGjFta-nUZa0oo8U-ssDeq86wAU8N0eRq0N3i7Oq0WN0aaUWN6rpHYSjKQFwo0oYbOe0wEM1WpWNg5kXf07elp2Ihq5hvk5zHkbiirjKOCG9sKYWXiUAOaIZAK3nriCcHTXHE3qhyt7Zgj2QeWve68sBTl]--></g></svg>